<?xml version="1.0" encoding="UTF-8" standalone="no"?>
<!-- Created with Inkscape (http://www.inkscape.org/) -->

<svg
   xmlns:dc="http://purl.org/dc/elements/1.1/"
   xmlns:cc="http://creativecommons.org/ns#"
   xmlns:rdf="http://www.w3.org/1999/02/22-rdf-syntax-ns#"
   xmlns:svg="http://www.w3.org/2000/svg"
   xmlns="http://www.w3.org/2000/svg"
   xmlns:sodipodi="http://sodipodi.sourceforge.net/DTD/sodipodi-0.dtd"
   xmlns:inkscape="http://www.inkscape.org/namespaces/inkscape"
   width="200"
   height="100"
   viewBox="0 0 52.916666 26.458333"
   version="1.1"
   id="svg5"
   inkscape:version="0.92.5 (2060ec1f9f, 2020-04-08)"
   sodipodi:docname="stickslide2.svg">
  <metadata
     id="metadata12">
    <rdf:RDF>
      <cc:Work
         rdf:about="">
        <dc:format>image/svg+xml</dc:format>
        <dc:type
           rdf:resource="http://purl.org/dc/dcmitype/StillImage" />
        <dc:title />
      </cc:Work>
    </rdf:RDF>
  </metadata>
  <sodipodi:namedview
     id="namedview7"
     pagecolor="#ffffff"
     bordercolor="#666666"
     borderopacity="1.0"
     inkscape:pageshadow="2"
     inkscape:pageopacity="0.0"
     inkscape:pagecheckerboard="0"
     inkscape:document-units="px"
     showgrid="false"
     units="px"
     inkscape:zoom="2.9491002"
     inkscape:cx="83.014054"
     inkscape:cy="68.570973"
     inkscape:window-width="1564"
     inkscape:window-height="1027"
     inkscape:window-x="1706"
     inkscape:window-y="208"
     inkscape:window-maximized="0"
     inkscape:current-layer="layer1"
     width="200px" />
  <defs
     id="defs2" />
  <g
     inkscape:label="Layer 1"
     inkscape:groupmode="layer"
     id="layer1">
    <circle
       style="fill:#000000;fill-opacity:1;fill-rule:evenodd;stroke-width:0.26458299"
       id="path31"
       cx="-19.944828"
       cy="6.3490543"
       r="6.1038041"
       transform="rotate(-90)" />
    <path
       style="fill:none;stroke:#000000;stroke-width:1.11125004;stroke-linecap:round;stroke-linejoin:miter;stroke-miterlimit:4;stroke-dasharray:none;stroke-opacity:1"
       d="m 11.770362,22.079186 c 10.045176,3.101235 10.154003,3.189096 16.596167,2.800367"
       id="path146"
       sodipodi:nodetypes="cc"
       inkscape:connector-curvature="0" />
    <path
       style="fill:none;stroke:#000000;stroke-width:1.11125004;stroke-linecap:round;stroke-linejoin:miter;stroke-miterlimit:4;stroke-dasharray:none;stroke-opacity:1"
       d="M 46.580933,25.466754 C 41.651136,25.329313 35.94707,26.785789 28.366529,24.879553"
       id="path580"
       sodipodi:nodetypes="cc"
       inkscape:connector-curvature="0" />
    <path
       style="fill:none;stroke:#000000;stroke-width:1.11125004;stroke-linecap:round;stroke-linejoin:miter;stroke-miterlimit:4;stroke-dasharray:none;stroke-opacity:1"
       d="m 38.76875,24.607415 c -1.617773,-2.242374 -2.632022,-4.318808 -4.140457,-5.93726 -1.91678,2.064882 -3.841765,4.258847 -6.261764,6.209396"
       id="path582"
       sodipodi:nodetypes="ccc"
       inkscape:connector-curvature="0" />
    <path
       style="fill:none;stroke:#000000;stroke-width:0.95249999;stroke-linecap:round;stroke-linejoin:miter;stroke-miterlimit:4;stroke-dasharray:none;stroke-opacity:1"
       d="m 16.50403,23.513708 c 5.449723,0.159147 10.883353,0.253918 10.780813,-0.156242"
       id="path2367"
       sodipodi:nodetypes="cc"
       inkscape:connector-curvature="0" />
    <path
       style="fill:none;stroke:#000000;stroke-width:0.95249999;stroke-linecap:round;stroke-linejoin:miter;stroke-miterlimit:4;stroke-dasharray:none;stroke-opacity:1"
       d="m 16.50403,23.513708 c 0.416292,0.518237 6.763527,-0.738601 10.077715,-1.562435"
       id="path2369"
       sodipodi:nodetypes="cc"
       inkscape:connector-curvature="0" />
    <path
       style="opacity:0.89200003;fill:#802f09;fill-opacity:0.42857145;stroke:none;stroke-width:0.50859529;stroke-miterlimit:3.29999995;stroke-dasharray:none;stroke-opacity:1"
       d="m 47.513002,21.930984 c -0.384118,0.414496 -0.880111,0.493371 -1.470616,0.288703 -0.540199,0.01997 -1.21918,0.359138 -1.490416,-0.239508 -0.731354,0.22765 -1.116665,0.01237 -1.110861,-0.703544 -0.599522,-0.04037 -0.863319,-0.291774 -0.433652,-0.979065 -0.753638,-0.549139 -0.141224,-0.756764 0.359758,-0.992248 -0.202039,-1.31688 0.42333,-1.036005 1.056764,-0.739558 0.661519,-0.952797 1.030405,-0.442436 1.470617,-0.288703 0.613292,-0.463769 1.049308,-0.100249 1.490415,0.239508 0.567355,-0.114836 1.172784,-0.297165 1.110858,0.703544 0.546269,0.05319 0.623301,0.425453 0.433651,0.979066 0.362196,0.48037 0.130088,0.776302 -0.359754,0.992247 -0.164284,0.340505 -0.112914,0.788836 -1.056764,0.739558 z"
       id="path838"
       inkscape:connector-curvature="0"
       sodipodi:nodetypes="ccccccccccccc" />
    <path
       style="opacity:0.89200003;fill:#802f09;fill-opacity:0.26285718;stroke:none;stroke-width:0.50859529;stroke-miterlimit:3.29999995;stroke-dasharray:none;stroke-opacity:1"
       d="m 32.31745,15.840497 c -0.384118,0.414496 -0.880111,0.49337 -1.470616,0.288703 -0.540199,0.01997 -1.21918,0.359138 -1.490416,-0.239508 -0.731354,0.227649 -1.116665,0.01237 -1.110861,-0.703544 -0.599522,-0.04037 -0.863319,-0.291774 -0.433652,-0.979066 -0.753638,-0.549139 -0.141224,-0.756764 0.359758,-0.992248 -0.202039,-1.316879 0.42333,-1.036005 1.056764,-0.739558 0.661519,-0.952796 1.030405,-0.442435 1.470617,-0.288702 0.613292,-0.463769 1.049308,-0.100249 1.490415,0.239508 0.567355,-0.114836 1.172784,-0.297165 1.110858,0.703543 0.546269,0.05319 0.623301,0.425453 0.433651,0.979066 0.362196,0.480371 0.130088,0.776303 -0.359754,0.992247 -0.164284,0.340505 -0.112914,0.788836 -1.056764,0.739559 z"
       id="path838-3"
       inkscape:connector-curvature="0"
       sodipodi:nodetypes="ccccccccccccc" />
    <path
       style="opacity:0.89200003;fill:#802f09;fill-opacity:0.97714287;stroke:none;stroke-width:0.71503431;stroke-miterlimit:3.29999995;stroke-dasharray:none;stroke-opacity:1"
       d="m 50.687446,29.245401 c -0.527566,0.596511 -1.208786,0.710021 -2.019812,0.415479 -0.741935,0.02874 -1.674478,0.516843 -2.047005,-0.344681 -1.004475,0.327616 -1.533679,0.0178 -1.525707,-1.012486 -0.823411,-0.0581 -1.185723,-0.419898 -0.595598,-1.408993 -1.035082,-0.790278 -0.193964,-1.089076 0.494108,-1.427966 -0.27749,-1.895151 0.58142,-1.490937 1.451408,-1.064314 0.90856,-1.371191 1.415205,-0.636719 2.019812,-0.415479 0.842323,-0.66742 1.441168,-0.14427 2.047006,0.344681 0.77923,-0.165263 1.610755,-0.427656 1.525703,1.012486 0.750272,0.07655 0.856071,0.612279 0.595595,1.408995 0.497458,0.691311 0.178669,1.117193 -0.4941,1.427964 -0.225635,0.490028 -0.155084,1.135231 -1.45141,1.064314 z"
       id="path838-36-3"
       inkscape:connector-curvature="0"
       sodipodi:nodetypes="ccccccccccccc" />
  </g>
</svg>
